# xmcd CD database file
#
# Track frame offsets:
#	150
#	22433
#	41835
#	55128
#	86935
#	100702
#	121045
#	140916
#	152981
#	157601
#	177946
#	194145
#	209418
#
# Disc length: 3100 seconds
#
# Revision: 0
# Processed by: cddbd v1.5.2PL0 Copyright (c) Steve Scherf et al.
# Submitted via: CDex 1.70beta2
#
DISCID=be0c1a0d
DTITLE=Sampler - True Blues
DYEAR=2013
DGENRE=Blues
TTITLE0=Guy Davis, Corey Harris - Hoochie Coochie Man
TTITLE1=Alvin Youngblood - Motherless Children Have A Hard Time
TTITLE2=Corey Harris - Everybody Ought to Make A Change
TTITLE3=Taj Mahal - Done Changed My Way Of Living
TTITLE4=Guy Davis - Saturday Blues
TTITLE5=Shemekia Copeland - Bring Your Fine Self Home
TTITLE6=Phil Wiggins with Alvin Youngblood Hart - Roberta
TTITLE7=Corey Harris - C.C. Pill Blues
TTITLE8=Phil Wiggins - Prayer And Praises
TTITLE9=Alvin Youngblood Hart - Gallows Pole
TTITLE10=Guy Davis - That`s No Way To Get Along
TTITLE11=Taj Mahal - Mailbox Blues
TTITLE12=Shemekia Copeland and Corey Harris - Ramblin' On My Mind
EXTD=YEAR: 2013
EXTT0=
EXTT1=
EXTT2=
EXTT3=
EXTT4=
EXTT5=
EXTT6=
EXTT7=
EXTT8=
EXTT9=
EXTT10=
EXTT11=
EXTT12=
PLAYORDER=
